<?xml version="1.0" encoding="utf-8"?>
<svg xmlns="http://www.w3.org/2000/svg" viewBox="0 0 500 500" xmlns:bx="https://boxy-svg.com">
  <defs>
    <filter id="inner-shadow-filter-0" bx:preset="inner-shadow 1 0 14 20 0.44 #352f1e" color-interpolation-filters="sRGB" x="-50%" y="-50%" width="200%" height="200%">
      <feOffset dx="0" dy="14"/>
      <feGaussianBlur stdDeviation="20"/>
      <feComposite operator="out" in="SourceGraphic"/>
      <feComponentTransfer result="choke">
        <feFuncA type="linear" slope="0.88"/>
      </feComponentTransfer>
      <feFlood flood-color="#352f1e" result="color"/>
      <feComposite operator="in" in="color" in2="choke" result="shadow"/>
      <feComposite operator="over" in="shadow" in2="SourceGraphic"/>
    </filter>
    <filter id="brightness-filter-0" bx:preset="brightness 1 1.2" color-interpolation-filters="sRGB" x="-50%" y="-50%" width="200%" height="200%">
      <feComponentTransfer>
        <feFuncR type="linear" slope="1.2"/>
        <feFuncG type="linear" slope="1.2"/>
        <feFuncB type="linear" slope="1.2"/>
      </feComponentTransfer>
    </filter>
    <filter id="inner-shadow-filter-1" bx:preset="inner-shadow 1 0 0 17 0.5 #450006" color-interpolation-filters="sRGB" x="-50%" y="-50%" width="200%" height="200%">
      <feOffset dx="0" dy="0"/>
      <feGaussianBlur stdDeviation="17"/>
      <feComposite operator="out" in="SourceGraphic"/>
      <feComponentTransfer result="choke">
        <feFuncA type="linear" slope="1"/>
      </feComponentTransfer>
      <feFlood flood-color="#450006" result="color"/>
      <feComposite operator="in" in="color" in2="choke" result="shadow"/>
      <feComposite operator="over" in="shadow" in2="SourceGraphic"/>
    </filter>
    <filter id="inner-shadow-filter-2" bx:preset="inner-shadow 1 0 0 8 0.5 rgba(0,0,0,0.7)" color-interpolation-filters="sRGB" x="-50%" y="-50%" width="200%" height="200%">
      <feOffset dx="0" dy="0"/>
      <feGaussianBlur stdDeviation="8"/>
      <feComposite operator="out" in="SourceGraphic"/>
      <feComponentTransfer result="choke">
        <feFuncA type="linear" slope="1"/>
      </feComponentTransfer>
      <feFlood flood-color="rgba(0,0,0,0.7)" result="color"/>
      <feComposite operator="in" in="color" in2="choke" result="shadow"/>
      <feComposite operator="over" in="shadow" in2="SourceGraphic"/>
    </filter>
    <filter id="inner-shadow-filter-3" bx:preset="inner-shadow 1 3 0 5 0.5 rgba(0,0,0,0.7)" color-interpolation-filters="sRGB" x="-50%" y="-50%" width="200%" height="200%">
      <feOffset dx="3" dy="0"/>
      <feGaussianBlur stdDeviation="5"/>
      <feComposite operator="out" in="SourceGraphic"/>
      <feComponentTransfer result="choke">
        <feFuncA type="linear" slope="1"/>
      </feComponentTransfer>
      <feFlood flood-color="rgba(0,0,0,0.7)" result="color"/>
      <feComposite operator="in" in="color" in2="choke" result="shadow"/>
      <feComposite operator="over" in="shadow" in2="SourceGraphic"/>
    </filter>
    <filter id="inner-shadow-filter-4" bx:preset="inner-shadow 1 4 0 5 0.5 rgba(0,0,0,0.7)" color-interpolation-filters="sRGB" x="-50%" y="-50%" width="200%" height="200%">
      <feOffset dx="4" dy="0"/>
      <feGaussianBlur stdDeviation="5"/>
      <feComposite operator="out" in="SourceGraphic"/>
      <feComponentTransfer result="choke">
        <feFuncA type="linear" slope="1"/>
      </feComponentTransfer>
      <feFlood flood-color="rgba(0,0,0,0.7)" result="color"/>
      <feComposite operator="in" in="color" in2="choke" result="shadow"/>
      <feComposite operator="over" in="shadow" in2="SourceGraphic"/>
    </filter>
    <filter id="gaussian-blur-filter-0" bx:preset="gaussian-blur 1 1.4" color-interpolation-filters="sRGB" x="-50%" y="-50%" width="200%" height="200%">
      <feGaussianBlur stdDeviation="1.4 1.4" edgeMode="none"/>
    </filter>
    <filter id="gaussian-blur-filter-1" bx:preset="gaussian-blur 1 1.4" color-interpolation-filters="sRGB" x="-50%" y="-50%" width="200%" height="200%">
      <feGaussianBlur stdDeviation="1.4 1.4" edgeMode="none"/>
    </filter>
  </defs>
  <path style="fill: rgb(215, 0, 19); filter: url(&quot;#inner-shadow-filter-1&quot;); stroke: rgb(153, 0, 16); stroke-width: 0px;" d="M 245.673 141.151 C 170.51 149.627 126.62 190.105 114.002 262.584 C 111.052 279.53 114.837 296.31 125.358 312.923 C 134.341 327.107 147.976 336.904 166.262 342.314 C 222.444 358.936 281.013 357.4 341.97 337.705 C 346.531 336.232 354.262 330.536 365.164 320.618 C 380.538 306.632 386.236 286.644 382.259 260.655 C 376.028 219.936 353.303 185.579 314.086 157.582 C 303.653 150.134 280.849 144.657 245.673 141.151 Z"/>
  <ellipse style="fill: rgb(255, 255, 255); filter: url(&quot;#inner-shadow-filter-2&quot;); stroke: rgb(215, 215, 215); stroke-width: 0px;" cx="248.939" cy="207.291" rx="65.025" ry="59.557"/>
  <path style="fill: rgb(255, 255, 255); filter: url(&quot;#inner-shadow-filter-4&quot;); stroke: rgb(162, 162, 162); stroke-width: 0px;" d="M 138.89 197.167 C 148.344 208.639 149.261 229.761 141.641 260.534 C 138.307 273.999 130.316 285.438 117.669 294.852 C 115.563 296.419 114.206 289.283 113.597 273.444 C 113.209 263.364 114.513 253.362 117.507 243.436 C 122.353 227.371 129.48 211.948 138.89 197.167 Z"/>
  <path style="transform-box: fill-box; transform-origin: 50% 50%; fill: rgb(255, 255, 255); filter: url(&quot;#inner-shadow-filter-3&quot;); stroke: rgb(193, 193, 193); stroke-width: 0px;" d="M 375.55 298.57 C 385.004 287.098 385.921 265.976 378.301 235.203 C 374.967 221.738 366.976 210.299 354.329 200.885 C 352.223 199.318 350.866 206.454 350.257 222.293 C 349.869 232.373 351.173 242.375 354.167 252.301 C 359.013 268.366 366.14 283.789 375.55 298.57 Z" transform="matrix(-1, 0, 0, -1, -0.000037, -0.000013)"/>
  <path style="stroke: rgb(0, 0, 0); fill: rgb(242, 211, 139); filter: url(&quot;#inner-shadow-filter-0&quot;) url(&quot;#brightness-filter-0&quot;); stroke-width: 0px;" d="M 330.922 326.56 C 330.534 356.318 321.312 374.912 302.282 380.022 C 280.891 385.766 258.9 388.411 236.31 387.957 C 215.632 387.541 195.876 381.424 177.04 369.604 C 174.713 368.144 172.335 362.798 169.904 353.565 C 167.58 344.738 166.584 335.664 166.916 326.345 C 166.916 326.345 172.242 322.586 182.894 315.067 C 189.931 310.1 219.872 300.518 249.144 299.48 C 267.811 298.818 288.444 305.153 295.431 306.943 C 308.764 310.358 320.594 316.897 330.922 326.56 Z"/>
  <ellipse style="stroke: rgb(0, 0, 0); fill: rgb(56, 40, 25); stroke-width: 0px;" cx="276.858" cy="334.62" rx="7.099" ry="21.775"/>
  <ellipse style="stroke-width: 1; fill: rgb(255, 255, 255); filter: url(&quot;#gaussian-blur-filter-0&quot;); stroke: rgb(255, 255, 255);" cx="276.727" cy="323.439" rx="3.298" ry="5.545"/>
  <ellipse style="stroke: rgb(0, 0, 0); fill: rgb(56, 40, 25); stroke-width: 0px;" cx="227.801" cy="335.841" rx="7.099" ry="21.775"/>
  <ellipse style="stroke-width: 1; fill: rgb(255, 255, 255); filter: url(&quot;#gaussian-blur-filter-1&quot;); stroke: rgb(255, 255, 255);" cx="227.685" cy="325.016" rx="3.298" ry="5.545"/>
</svg>