<?xml version="1.0" encoding="utf-8"?>
<svg xmlns="http://www.w3.org/2000/svg" viewBox="0 0 500 500" xmlns:bx="https://boxy-svg.com">
  <defs>
    <filter id="gaussian-blur-filter-0" bx:preset="gaussian-blur 1 5" color-interpolation-filters="sRGB" x="-50%" y="-50%" width="200%" height="200%">
      <feGaussianBlur stdDeviation="5 5" edgeMode="none"/>
    </filter>
    <filter id="brightness-filter-0" bx:preset="brightness 1 1.5" color-interpolation-filters="sRGB" x="-50%" y="-50%" width="200%" height="200%">
      <feComponentTransfer>
        <feFuncR type="linear" slope="1.5"/>
        <feFuncG type="linear" slope="1.5"/>
        <feFuncB type="linear" slope="1.5"/>
      </feComponentTransfer>
    </filter>
    <filter id="brightness-filter-1" bx:preset="brightness 1 1.5" color-interpolation-filters="sRGB" x="-50%" y="-50%" width="200%" height="200%">
      <feComponentTransfer>
        <feFuncR type="linear" slope="1.5"/>
        <feFuncG type="linear" slope="1.5"/>
        <feFuncB type="linear" slope="1.5"/>
      </feComponentTransfer>
    </filter>
    <filter id="gaussian-blur-filter-1" bx:preset="gaussian-blur 1 5" color-interpolation-filters="sRGB" x="-50%" y="-50%" width="200%" height="200%">
      <feGaussianBlur stdDeviation="5 5" edgeMode="none"/>
    </filter>
    <filter id="brightness-filter-2" bx:preset="brightness 1 1.5" color-interpolation-filters="sRGB" x="-50%" y="-50%" width="200%" height="200%">
      <feComponentTransfer>
        <feFuncR type="linear" slope="1.5"/>
        <feFuncG type="linear" slope="1.5"/>
        <feFuncB type="linear" slope="1.5"/>
      </feComponentTransfer>
    </filter>
    <filter id="brightness-filter-3" bx:preset="brightness 1 1.5" color-interpolation-filters="sRGB" x="-50%" y="-50%" width="200%" height="200%">
      <feComponentTransfer>
        <feFuncR type="linear" slope="1.5"/>
        <feFuncG type="linear" slope="1.5"/>
        <feFuncB type="linear" slope="1.5"/>
      </feComponentTransfer>
    </filter>
    <linearGradient gradientUnits="userSpaceOnUse" x1="253.78" y1="48.75" x2="253.78" y2="274.069" id="gradient-0" gradientTransform="matrix(-0.953661, -0.300884, 0.075285, -0.238618, 417.249011, 289.698149)">
      <stop offset="0" style="stop-color: rgb(199, 204, 193);"/>
      <stop offset="1" style="stop-color: rgb(152, 164, 156);"/>
    </linearGradient>
    <filter id="gaussian-blur-filter-2" bx:preset="gaussian-blur 1 2.7" color-interpolation-filters="sRGB" x="-50%" y="-50%" width="200%" height="200%">
      <feGaussianBlur stdDeviation="2.7 2.7" edgeMode="none"/>
    </filter>
    <filter id="gaussian-blur-filter-3" bx:preset="gaussian-blur 1 1.5" color-interpolation-filters="sRGB" x="-50%" y="-50%" width="200%" height="200%">
      <feGaussianBlur stdDeviation="1.5 1.5" edgeMode="none"/>
    </filter>
    <filter id="gaussian-blur-filter-4" bx:preset="gaussian-blur 1 3.1" color-interpolation-filters="sRGB" x="-50%" y="-50%" width="200%" height="200%">
      <feGaussianBlur stdDeviation="3.1 3.1" edgeMode="none"/>
    </filter>
    <filter id="drop-shadow-filter-0" bx:preset="drop-shadow 1 2 4 3 0.5 rgba(0,0,0,0.3)" color-interpolation-filters="sRGB" x="-50%" y="-50%" width="200%" height="200%">
      <feGaussianBlur in="SourceAlpha" stdDeviation="3"/>
      <feOffset dx="2" dy="4"/>
      <feComponentTransfer result="offsetblur">
        <feFuncA id="spread-ctrl" type="linear" slope="1"/>
      </feComponentTransfer>
      <feFlood flood-color="rgba(0,0,0,0.3)"/>
      <feComposite in2="offsetblur" operator="in"/>
      <feMerge>
        <feMergeNode/>
        <feMergeNode in="SourceGraphic"/>
      </feMerge>
    </filter>
    <filter id="gaussian-blur-filter-5" bx:preset="gaussian-blur 1 1.5" color-interpolation-filters="sRGB" x="-50%" y="-50%" width="200%" height="200%">
      <feGaussianBlur stdDeviation="1.5 1.5" edgeMode="none"/>
    </filter>
    <filter id="gaussian-blur-filter-6" bx:preset="gaussian-blur 1 1.8" color-interpolation-filters="sRGB" x="-50%" y="-50%" width="200%" height="200%">
      <feGaussianBlur stdDeviation="1.8 1.8" edgeMode="none"/>
    </filter>
    <filter id="inner-shadow-filter-0" bx:preset="inner-shadow 1 0 0 3 0.5 #ffffffb3" color-interpolation-filters="sRGB" x="-50%" y="-50%" width="200%" height="200%">
      <feOffset dx="0" dy="0"/>
      <feGaussianBlur stdDeviation="3"/>
      <feComposite operator="out" in="SourceGraphic"/>
      <feComponentTransfer result="choke">
        <feFuncA type="linear" slope="1"/>
      </feComponentTransfer>
      <feFlood flood-color="#ffffffb3" result="color"/>
      <feComposite operator="in" in="color" in2="choke" result="shadow"/>
      <feComposite operator="over" in="shadow" in2="SourceGraphic"/>
    </filter>
    <filter id="inner-shadow-filter-1" bx:preset="inner-shadow 1 -55 0 40 0.64 #a1afd9" color-interpolation-filters="sRGB" x="-50%" y="-50%" width="200%" height="200%">
      <feOffset dx="-55" dy="0"/>
      <feGaussianBlur stdDeviation="40"/>
      <feComposite operator="out" in="SourceGraphic"/>
      <feComponentTransfer result="choke">
        <feFuncA type="linear" slope="1.28"/>
      </feComponentTransfer>
      <feFlood flood-color="#a1afd9" result="color"/>
      <feComposite operator="in" in="color" in2="choke" result="shadow"/>
      <feComposite operator="over" in="shadow" in2="SourceGraphic"/>
    </filter>
    <filter id="inner-shadow-filter-2" bx:preset="inner-shadow 1 0 0 10 0.5 #6cebff" color-interpolation-filters="sRGB" x="-50%" y="-50%" width="200%" height="200%">
      <feOffset dx="0" dy="0"/>
      <feGaussianBlur stdDeviation="10"/>
      <feComposite operator="out" in="SourceGraphic"/>
      <feComponentTransfer result="choke">
        <feFuncA type="linear" slope="1"/>
      </feComponentTransfer>
      <feFlood flood-color="#6cebff" result="color"/>
      <feComposite operator="in" in="color" in2="choke" result="shadow"/>
      <feComposite operator="over" in="shadow" in2="SourceGraphic"/>
    </filter>
    <filter id="inner-shadow-filter-3" bx:preset="inner-shadow 1 0 19 10 0.5 #205b84" color-interpolation-filters="sRGB" x="-50%" y="-50%" width="200%" height="200%">
      <feOffset dx="0" dy="19"/>
      <feGaussianBlur stdDeviation="10"/>
      <feComposite operator="out" in="SourceGraphic"/>
      <feComponentTransfer result="choke">
        <feFuncA type="linear" slope="1"/>
      </feComponentTransfer>
      <feFlood flood-color="#205b84" result="color"/>
      <feComposite operator="in" in="color" in2="choke" result="shadow"/>
      <feComposite operator="over" in="shadow" in2="SourceGraphic"/>
    </filter>
    <filter id="inner-shadow-filter-4" bx:preset="inner-shadow 1 -15 0 10 0.5 #626550" color-interpolation-filters="sRGB" x="-50%" y="-50%" width="200%" height="200%">
      <feOffset dx="-15" dy="0"/>
      <feGaussianBlur stdDeviation="10"/>
      <feComposite operator="out" in="SourceGraphic"/>
      <feComponentTransfer result="choke">
        <feFuncA type="linear" slope="1"/>
      </feComponentTransfer>
      <feFlood flood-color="#626550" result="color"/>
      <feComposite operator="in" in="color" in2="choke" result="shadow"/>
      <feComposite operator="over" in="shadow" in2="SourceGraphic"/>
    </filter>
    <filter id="drop-shadow-filter-1" bx:preset="drop-shadow 1 1 6 2 0.5 rgba(0,0,0,0.3)" color-interpolation-filters="sRGB" x="-50%" y="-50%" width="200%" height="200%">
      <feGaussianBlur in="SourceAlpha" stdDeviation="2"/>
      <feOffset dx="1" dy="6"/>
      <feComponentTransfer result="offsetblur">
        <feFuncA id="spread-ctrl" type="linear" slope="1"/>
      </feComponentTransfer>
      <feFlood flood-color="rgba(0,0,0,0.3)"/>
      <feComposite in2="offsetblur" operator="in"/>
      <feMerge>
        <feMergeNode/>
        <feMergeNode in="SourceGraphic"/>
      </feMerge>
    </filter>
    <filter id="inner-shadow-filter-5" bx:preset="inner-shadow 1 0 0 4 0.5 rgba(0,0,0,0.7)" color-interpolation-filters="sRGB" x="-50%" y="-50%" width="200%" height="200%">
      <feOffset dx="0" dy="0"/>
      <feGaussianBlur stdDeviation="4"/>
      <feComposite operator="out" in="SourceGraphic"/>
      <feComponentTransfer result="choke">
        <feFuncA type="linear" slope="1"/>
      </feComponentTransfer>
      <feFlood flood-color="rgba(0,0,0,0.7)" result="color"/>
      <feComposite operator="in" in="color" in2="choke" result="shadow"/>
      <feComposite operator="over" in="shadow" in2="SourceGraphic"/>
    </filter>
    <filter id="inner-shadow-filter-6" bx:preset="inner-shadow 1 0 0 2 0.5 rgba(0,0,0,0.7)" color-interpolation-filters="sRGB" x="-50%" y="-50%" width="200%" height="200%">
      <feOffset dx="0" dy="0"/>
      <feGaussianBlur stdDeviation="2"/>
      <feComposite operator="out" in="SourceGraphic"/>
      <feComponentTransfer result="choke">
        <feFuncA type="linear" slope="1"/>
      </feComponentTransfer>
      <feFlood flood-color="rgba(0,0,0,0.7)" result="color"/>
      <feComposite operator="in" in="color" in2="choke" result="shadow"/>
      <feComposite operator="over" in="shadow" in2="SourceGraphic"/>
    </filter>
    <filter id="inner-shadow-filter-7" bx:preset="inner-shadow 1 0 0 10 0.5 #0d2125" color-interpolation-filters="sRGB" x="-50%" y="-50%" width="200%" height="200%">
      <feOffset dx="0" dy="0"/>
      <feGaussianBlur stdDeviation="10"/>
      <feComposite operator="out" in="SourceGraphic"/>
      <feComponentTransfer result="choke">
        <feFuncA type="linear" slope="1"/>
      </feComponentTransfer>
      <feFlood flood-color="#0d2125" result="color"/>
      <feComposite operator="in" in="color" in2="choke" result="shadow"/>
      <feComposite operator="over" in="shadow" in2="SourceGraphic"/>
    </filter>
    <filter id="inner-shadow-filter-8" bx:preset="inner-shadow 1 0 0 2 0.5 rgba(0,0,0,0.7)" color-interpolation-filters="sRGB" x="-50%" y="-50%" width="200%" height="200%">
      <feOffset dx="0" dy="0"/>
      <feGaussianBlur stdDeviation="2"/>
      <feComposite operator="out" in="SourceGraphic"/>
      <feComponentTransfer result="choke">
        <feFuncA type="linear" slope="1"/>
      </feComponentTransfer>
      <feFlood flood-color="rgba(0,0,0,0.7)" result="color"/>
      <feComposite operator="in" in="color" in2="choke" result="shadow"/>
      <feComposite operator="over" in="shadow" in2="SourceGraphic"/>
    </filter>
  </defs>
  <g style="filter: url(&quot;#inner-shadow-filter-2&quot;);" transform="matrix(1, 0, 0, 1, -0.323462, 0.161723)">
    <path style="fill: rgb(46, 105, 113); stroke: rgb(46, 105, 113);" d="M 363.359 188.815 C 298.959 180.278 234.374 174.187 169.605 170.544 C 142.583 169.024 127.878 176.403 125.489 192.682 C 122.967 209.868 123.118 226.818 125.943 243.531 C 128.635 259.458 140.1 272.933 160.239 283.956 C 164.644 286.367 175.526 290.129 192.884 295.241 C 192.884 295.241 209.123 297.387 241.601 301.68 C 260.227 304.142 299.477 308.877 300.276 308.924 C 317.562 308.823 335.056 308 351.032 301.822 C 364.785 296.504 373.964 285.747 378.57 269.55 C 395.613 219.33 390.543 192.419 363.359 188.815 Z"/>
  </g>
  <path style="fill: rgb(129, 143, 138); stroke: rgb(129, 143, 138);" d="M 114.658 242.445 C 120.877 244.632 128.702 244.587 138.133 242.31 C 142.19 241.33 144.193 237.669 144.143 231.326 C 144.111 227.281 144.143 224.535 144.238 220.49 C 144.238 220.49 142.759 220.378 139.801 220.155 C 135.721 219.847 132.388 217.474 129.801 213.036 C 129.801 213.036 130.16 215.747 130.878 221.17 C 130.878 221.17 130.669 225.589 130.251 234.426 C 130.251 234.426 128.826 236.154 125.976 239.611 C 123.649 242.434 119.876 243.378 114.658 242.445 Z"/>
  <path style="fill: url(&quot;#gradient-0&quot;); stroke: rgb(180, 188, 178); filter: url(&quot;#inner-shadow-filter-1&quot;);" d="M 377.424 274.069 C 385.752 273.469 390.419 272.54 391.427 271.283 C 394.528 267.414 396.079 265.48 396.079 265.48 C 409.54 192.369 395.426 128.557 359.039 90.706 C 300.918 30.245 195.165 31.177 140.994 119.511 C 125.174 145.308 100.413 191.269 107.824 214.999 C 107.824 214.999 107.903 221.76 108.062 235.281 C 108.099 238.462 110.266 240.791 114.561 242.268 C 119.059 243.815 123.508 242.181 127.907 237.366 C 130.505 234.523 131.054 225.992 129.556 211.772 C 129.556 211.772 130.954 213.419 133.749 216.714 C 135.945 219.303 144.561 220.925 159.595 221.58 C 174.96 222.249 190.279 223.606 205.554 225.65 C 205.554 225.65 205.06 230.264 204.073 239.492 C 203.514 244.719 206.527 249.026 213.113 252.413 C 213.113 252.413 221.529 253.188 238.36 254.738 C 243.119 255.176 247.639 253.625 251.921 250.083 C 252.093 249.941 253.623 244.169 256.512 232.768 C 256.598 232.43 268.241 235.509 291.441 242.004 C 291.441 242.004 307.528 246.531 339.701 255.586 C 353.244 259.398 366.154 264.18 379.074 269.934 C 377.759 272.691 377.424 274.069 377.424 274.069 Z"/>
  <path style="fill: rgb(79, 93, 95); stroke: rgb(79, 93, 95); filter: url(&quot;#gaussian-blur-filter-4&quot;);" d="M 171.725 133.305 L 164.87 145.589 C 148.769 180.387 139.583 180.7 127.767 178.349 C 125.588 177.915 126.916 168.146 131.756 149.01 C 133.398 142.517 136.044 136.365 139.695 130.553 C 142.059 126.79 142.573 131.054 141.237 143.346 C 140.557 149.603 139.307 156.169 137.488 163.044 C 136.763 165.784 137.05 168.604 138.348 171.503 C 139.243 173.503 141.427 173.32 144.899 170.953 C 150.704 166.995 159.646 154.446 171.725 133.305 Z"/>
  <path style="stroke-width: 1; stroke: rgb(211, 214, 202); fill: rgb(225, 225, 212); filter: url(&quot;#gaussian-blur-filter-6&quot;);" d="M 171.087 171.697 C 189.727 193.335 184.435 201.026 166.78 197.707 C 166.78 197.707 162.708 197.537 154.564 197.197 C 151.315 197.062 151.149 193.485 154.062 186.466 C 156.573 180.414 160.379 175.245 165.474 170.96 C 167.065 169.621 168.936 169.866 171.087 171.697 Z"/>
  <path style="stroke: rgb(0, 0, 0); filter: url(&quot;#inner-shadow-filter-0&quot;);" d="M 170.666 176.85 C 184.627 191.559 180.664 196.787 167.441 194.531 C 167.441 194.531 164.391 194.415 158.291 194.184 C 155.858 194.092 155.733 191.661 157.915 186.89 C 159.796 182.776 162.646 179.262 166.462 176.349 C 167.654 175.439 169.055 175.606 170.666 176.85 Z"/>
  <path style="fill: rgb(91, 109, 109); filter: url(&quot;#gaussian-blur-filter-2&quot;); stroke: rgb(88, 106, 105);" d="M 266.342 173.269 C 262.59 178.286 248.446 177.706 242.261 181.294 C 228.191 189.455 218.629 183.6 216.171 180.294 C 209.493 171.313 204.161 164.051 206.377 154.954 C 210.866 136.522 221.395 122.143 232.331 113.535 C 237.203 109.7 238.683 108.155 236.588 108.664 C 221.687 112.285 214.236 114.095 214.236 114.095 C 209.792 119.693 206.124 125.58 203.232 131.758 C 191.805 156.167 195.618 174.523 214.671 186.827 C 227.073 194.836 238.709 193.918 255.83 185.518 C 261.301 170.213 271.71 166.09 266.342 173.269 Z"/>
  <ellipse style="stroke: rgb(0, 0, 0); transform-box: fill-box; transform-origin: 50% 50%; fill: rgb(25, 30, 9);" cx="246.149" cy="148.912" rx="28.191" ry="39.839" transform="matrix(0.890638, 0.454713, -0.454713, 0.890638, -7.635478, -1.269806)"/>
  <ellipse style="stroke: rgb(0, 0, 0); fill: rgb(161, 186, 10); transform-box: fill-box; transform-origin: 50% 50%; filter: url(&quot;#gaussian-blur-filter-0&quot;) url(&quot;#brightness-filter-1&quot;);" cx="234.819" cy="145.687" rx="11.786" ry="17.664" transform="matrix(0.940193, 0.340641, -0.340641, 0.940193, 0.231117, 0.001369)"/>
  <ellipse style="stroke: rgb(0, 0, 0); stroke-width: 1; transform-origin: 246.149px 148.912px;" cx="246.149" cy="148.912" rx="10.435" ry="39.972" transform="matrix(0.890638, 0.454713, -0.454713, 0.890638, -88.986695, -8.083812)"/>
  <ellipse style="stroke: rgb(0, 0, 0); stroke-width: 1; fill: rgb(182, 210, 37); filter: url(&quot;#gaussian-blur-filter-1&quot;) url(&quot;#brightness-filter-2&quot;); transform-origin: 234.819px 145.687px;" cx="234.819" cy="145.687" rx="5.681" ry="17.651" transform="matrix(0.91373, 0.406321, -0.406321, 0.91373, -77.794706, -3.031666)"/>
  <path style="stroke: rgb(0, 0, 0); fill: rgb(213, 211, 200); stroke-width: 0px; filter: url(&quot;#drop-shadow-filter-0&quot;) url(&quot;#gaussian-blur-filter-5&quot;);" d="M 168.018 87.826 C 168.437 102.836 175.946 111.195 190.546 112.903 C 220.077 116.358 252.527 107.96 287.896 87.71 C 296.917 82.545 286.662 84.245 257.13 92.809 C 234.401 99.4 209.665 101.132 182.92 98.004 C 176.953 97.306 171.986 93.913 168.018 87.826 Z"/>
  <path style="fill: rgb(41, 94, 100); stroke: rgb(41, 94, 100); filter: url(&quot;#inner-shadow-filter-3&quot;);" d="M 331.81 434.959 C 342.426 433.1 354.128 425.583 359.054 413.193 C 364.891 398.511 362.149 377.972 350.059 365.884 C 344.526 360.352 337.164 352.152 322.993 345.083 C 309.474 338.339 294.47 336.578 277.98 339.799 C 260.358 343.241 254.21 360.111 259.537 390.409 C 260.995 398.702 265.875 405.003 271.763 412.446 C 277.324 419.475 284.446 423.285 291.344 427.763 C 302.835 435.223 315.84 437.754 331.81 434.959 Z"/>
  <path style="fill: rgb(213, 188, 127); stroke: rgb(213, 188, 127); filter: url(&quot;#inner-shadow-filter-4&quot;) url(&quot;#drop-shadow-filter-1&quot;);" d="M 303.133 316.423 C 300.991 309.114 299.317 305.179 298.11 304.618 C 278.833 295.662 258.914 290.18 238.352 288.172 C 212.563 285.654 198.948 285.511 197.504 287.741 C 186.117 305.336 181.082 319.85 182.397 331.281 C 184.168 346.676 192.252 359.897 206.65 370.943 C 209.106 372.827 217.944 374.62 233.164 376.322 C 248.201 378.004 263.283 376.784 278.409 372.664 C 292.851 368.73 307.689 356.075 308.66 339.479 C 308.194 335.093 306.352 327.407 303.133 316.423 Z"/>
  <path style="fill: rgb(35, 83, 89); stroke: rgb(35, 83, 89); filter: url(&quot;#inner-shadow-filter-7&quot;);" d="M 202.696 408.724 C 208.805 412.635 226.332 402.757 223.986 377.294 C 223.159 368.316 210.586 355.653 181.538 330.685 C 169.689 320.501 154.411 317.231 135.703 320.876 C 125.614 322.842 118.092 329.846 113.137 341.889 C 110.021 349.461 111.709 357.474 118.201 365.927 C 118.201 365.927 129.328 372.908 151.583 386.871 C 165.159 395.389 179.589 402.36 194.875 407.786 C 197.2 408.611 199.807 408.924 202.696 408.724 Z"/>
  <path style="fill: rgb(88, 106, 111); stroke: rgb(88, 106, 111);" d="M 204.343 242.184 C 228.16 247.575 241.33 248.081 243.851 243.702 C 243.851 243.702 245.451 236.327 248.652 221.577 C 248.652 221.577 251.179 225.427 256.233 233.128 C 256.233 233.128 254.821 238.472 251.998 249.161 C 250.837 253.555 243.865 255.605 231.079 255.31 C 224.637 255.161 218.239 254.402 211.883 253.03 C 207.776 252.143 205.263 248.528 204.343 242.184 Z"/>
  <ellipse style="fill: rgb(161, 186, 10); stroke-width: 1; transform-origin: 234.819px 145.687px; stroke: rgb(161, 186, 10); filter: url(&quot;#brightness-filter-0&quot;) url(&quot;#inner-shadow-filter-5&quot;);" cx="234.819" cy="145.687" rx="8.415" ry="16.14" transform="matrix(0.940193, 0.340641, -0.340641, 0.940193, 0.938292, -0.101678)"/>
  <ellipse style="stroke-width: 1; fill: rgb(182, 210, 37); transform-origin: 234.819px 145.687px; stroke: rgb(255, 255, 75); filter: url(&quot;#brightness-filter-3&quot;) url(&quot;#inner-shadow-filter-6&quot;);" cx="234.819" cy="145.687" rx="4.742" ry="16.14" transform="matrix(0.91373, 0.406321, -0.406321, 0.91373, -77.919011, -1.562358)"/>
  <path style="fill: rgb(194, 196, 185); stroke: rgb(194, 196, 185); filter: url(&quot;#gaussian-blur-filter-3&quot;);" d="M 270.794 139.714 C 269.849 123.804 264.139 114.401 253.663 111.506 C 246.433 109.508 244.111 108.07 246.697 107.191 C 253.697 104.813 257.197 103.624 257.197 103.624 C 276.399 116.144 275.84 136.819 263.387 165.432 C 266.206 156.828 271.297 148.183 270.794 139.714 Z"/>
  <path style="fill: rgb(179, 166, 112); stroke: rgb(179, 165, 112); filter: url(&quot;#inner-shadow-filter-8&quot;);" d="M 118.839 365.359 C 113.867 352.601 114.773 346.547 121.557 347.198 C 133.524 348.346 161.423 369.019 205.251 409.217 C 205.138 410.444 193.824 413.183 172.974 399.414 C 172.748 399.265 154.67 387.984 118.839 365.359 Z"/>
</svg>